<svg width="290" height="120" viewBox="0 0 290 120" fill="none" xmlns="http://www.w3.org/2000/svg">
<rect width="120" height="120" rx="60" fill="#ABCFEF"/>
<path d="M61.0212 46.76C64.5012 46.76 67.1812 47.86 69.0612 50.06C70.9812 52.22 71.9412 55.04 71.9412 58.52H54.7212C54.6812 58.72 54.6612 59.06 54.6612 59.54V60.62C54.7012 63.9 55.3412 66.64 56.5812 68.84C57.8612 71.04 60.0012 72.14 63.0012 72.14C66.4812 72.14 68.9812 70.38 70.5012 66.86L71.8212 67.82C69.7812 72.26 66.3412 74.48 61.5012 74.48C57.4612 74.48 54.3012 73.2 52.0212 70.64C49.7412 68.04 48.6012 64.74 48.6012 60.74C48.6012 56.86 49.7212 53.56 51.9612 50.84C54.2412 48.12 57.2612 46.76 61.0212 46.76ZM54.9012 56.9H65.9412C65.7812 54.5 65.3412 52.64 64.6212 51.32C63.6612 49.32 62.3012 48.32 60.5412 48.32C57.5412 48.32 55.6612 51.18 54.9012 56.9Z" fill="#1D86EF"/>
<rect x="170" width="120" height="120" rx="60" fill="#F9F4A0"/>
<path d="M237.973 49.05C237.973 48.07 237.74 47.3233 237.273 46.81C236.76 46.2967 235.99 46.04 234.963 46.04C232.536 46.04 230.226 47.7667 228.033 51.22C225.84 54.6733 224.51 57.9167 224.043 60.95C225.676 60.7167 226.866 60.4833 227.613 60.25C230.18 59.6433 232.536 58.2667 234.683 56.12C236.876 53.9267 237.973 51.57 237.973 49.05ZM235.593 44.15C237.833 44.15 239.793 44.5933 241.473 45.48C243.153 46.32 243.993 47.7433 243.993 49.75C243.993 51.7567 243.293 53.6 241.893 55.28C240.493 56.96 238.696 58.3133 236.503 59.34C234.356 60.32 232.186 61.1133 229.993 61.72C227.846 62.28 225.77 62.6533 223.763 62.84C223.576 64.4267 223.483 65.64 223.483 66.48C223.483 68.72 223.95 70.5633 224.883 72.01C225.816 73.4567 227.333 74.18 229.433 74.18C231.72 74.18 233.75 73.27 235.523 71.45C237.343 69.5833 238.673 67.4133 239.513 64.94L240.983 66.2C239.91 69.2333 238.16 71.7533 235.733 73.76C233.353 75.72 230.623 76.7 227.543 76.7C224.043 76.7 221.36 75.7433 219.493 73.83C217.626 71.9167 216.693 69.21 216.693 65.71C216.693 60.11 218.466 55.1167 222.013 50.73C225.606 46.3433 230.133 44.15 235.593 44.15Z" fill="#1D86EF"/>
<line x1="120" y1="55" x2="170" y2="55" stroke="#1D86EF" stroke-width="10"/>
</svg>
