<svg width="290" height="120" viewBox="0 0 290 120" fill="none" xmlns="http://www.w3.org/2000/svg">
<rect width="120" height="120" rx="60" fill="#ABCFEF"/>
<path d="M76.421 44.85V46.74H71.171V74.11H76.421V76H59.271V74.11H64.521V61.86H60.251C58.6644 61.86 57.521 62.2333 56.821 62.98C56.121 63.68 55.6077 64.8467 55.281 66.48L54.231 72.01C53.7177 74.67 51.781 76 48.421 76H41.911V74.11H44.081C45.201 74.11 46.0643 73.8767 46.671 73.41C47.231 72.9433 47.6043 72.29 47.791 71.45L48.701 66.97C49.2143 64.7767 50.031 63.26 51.151 62.42C52.3177 61.58 54.0443 61.0433 56.331 60.81V60.53C53.8577 60.3433 51.6877 59.69 49.821 58.57C48.001 57.4033 47.091 55.6767 47.091 53.39C47.091 50.4033 48.281 48.2333 50.661 46.88C53.041 45.5267 55.841 44.85 59.061 44.85H76.421ZM64.521 46.74H60.951C58.3843 46.74 56.5877 47.3933 55.561 48.7C54.5343 49.8667 54.021 51.43 54.021 53.39C54.021 57.7767 56.2843 59.97 60.811 59.97H64.521V46.74Z" fill="#1D86EF"/>
<rect x="170" width="120" height="120" rx="60" fill="#F9F4A0"/>
<path d="M232.46 62.77L232.67 62.21H229.38C227.7 62.21 226.557 62.5133 225.95 63.12C225.203 63.7733 224.527 64.8933 223.92 66.48L222.1 70.96C220.42 74.7867 217.76 76.7 214.12 76.7C211.507 76.7 209.733 75.3467 208.8 72.64L210.06 71.1C210.34 72.7333 211.11 73.55 212.37 73.55C213.817 73.55 215.03 72.3133 216.01 69.84L217.27 66.97C217.69 66.0367 218.087 65.3367 218.46 64.87C219.72 62.9567 222.147 61.72 225.74 61.16L225.81 60.88C223.85 60.8333 222.1 60.2967 220.56 59.27C219.067 58.1967 218.32 56.7267 218.32 54.86C218.32 51.7333 219.883 49.2833 223.01 47.51C226.137 45.7367 229.403 44.85 232.81 44.85H245.34C244.78 46.39 243.473 50.1 241.42 55.98C241.233 56.54 240.953 57.31 240.58 58.29C240.253 59.2233 240.02 59.8767 239.88 60.25C239.693 60.81 239.413 61.5567 239.04 62.49C238.713 63.4233 238.527 63.9833 238.48 64.17C238.2 64.9633 237.85 65.99 237.43 67.25C237.103 68.2767 236.917 68.86 236.87 69C236.59 69.9333 236.45 70.7733 236.45 71.52C236.45 72.8733 237.103 73.55 238.41 73.55C240.93 73.55 243.123 70.96 244.99 65.78C245.41 64.38 245.643 63.4 245.69 62.84L247.3 63.96C244.92 72.4533 241.14 76.7 235.96 76.7C232.227 76.7 230.36 74.7867 230.36 70.96C230.36 70.2133 230.5 69.2333 230.78 68.02C231.06 66.8067 231.62 65.0567 232.46 62.77ZM233.3 60.32L238.13 46.74H234.21C231.69 46.74 229.543 47.6267 227.77 49.4C225.997 51.1267 225.11 53.2267 225.11 55.7C225.11 58.78 226.883 60.32 230.43 60.32H233.3Z" fill="#1D86EF"/>
<line x1="120" y1="55" x2="170" y2="55" stroke="#1D86EF" stroke-width="10"/>
</svg>
