<svg width="1296" height="2125" viewBox="0 0 1296 2125" fill="none" xmlns="http://www.w3.org/2000/svg">
<mask id="path-1-inside-1_783_4657" fill="white">
<path d="M0 0H1296V2125H0V0Z"/>
</mask>
<path d="M0 0H1296V2125H0V0Z" fill="white"/>
<path d="M0 0V-5H-5V0H0ZM1296 0H1301V-5H1296V0ZM1296 2125V2130H1301V2125H1296ZM0 2125H-5V2130H0V2125ZM0 5H1296V-5H0V5ZM1291 0V2125H1301V0H1291ZM1296 2120H0V2130H1296V2120ZM5 2125V0H-5V2125H5Z" fill="#1D86EF" mask="url(#path-1-inside-1_783_4657)"/>
<path d="M142.5 1263L161.25 1281.25L124 1318.5L160.75 1355.5L142.5 1374L105.25 1337.25L68.5 1373.75L50.25 1355.25L86.5 1318.5L50 1281.75L68.5 1263L105.25 1299.5L142.5 1263Z" fill="#F9F4A0"/>
<path d="M214.438 1129.58C201.219 1129.58 190.442 1125.85 182.108 1118.38C173.774 1110.76 169.607 1100.56 169.607 1087.77C169.607 1073.4 174.277 1062.05 183.617 1053.72C192.957 1045.24 204.739 1041 218.964 1041C233.764 1041 245.618 1046.03 254.527 1056.09C263.579 1066 268.105 1078.36 268.105 1093.16C268.105 1116.44 260.921 1135.12 246.552 1149.2C232.327 1163.42 213.504 1172.69 190.083 1177L189.652 1170.1C202.44 1168.38 213.935 1162.2 224.137 1151.57C234.339 1140.93 240.733 1129.01 243.319 1115.79L242.457 1115.57C236.135 1124.91 226.795 1129.58 214.438 1129.58ZM219.18 1047.9C214.725 1047.9 210.846 1049.19 207.541 1051.78C204.236 1054.22 201.793 1057.52 200.213 1061.69C198.632 1065.86 197.483 1069.95 196.764 1073.98C196.19 1078 195.902 1082.09 195.902 1086.26C195.902 1092.01 196.549 1097.47 197.842 1102.64C199.135 1107.67 201.65 1112.27 205.386 1116.44C209.121 1120.46 213.863 1122.47 219.611 1122.47C223.778 1122.47 227.37 1121.32 230.387 1119.02C233.548 1116.58 235.847 1113.42 237.284 1109.54C238.865 1105.66 240.014 1101.85 240.733 1098.12C241.451 1094.24 241.81 1090.36 241.81 1086.48C241.81 1082.6 241.451 1078.65 240.733 1074.62C240.014 1070.46 238.865 1066.29 237.284 1062.12C235.704 1057.96 233.333 1054.58 230.172 1051.99C227.154 1049.26 223.49 1047.9 219.18 1047.9Z" fill="#ABCFEF"/>
<path d="M101.83 1129.58C88.6112 1129.58 77.8347 1125.85 69.5008 1118.38C61.1669 1110.76 57 1100.56 57 1087.77C57 1073.4 61.6698 1062.05 71.0095 1053.72C80.3492 1045.24 92.1315 1041 106.357 1041C121.156 1041 133.011 1046.03 141.919 1056.09C150.971 1066 155.498 1078.36 155.498 1093.16C155.498 1116.44 148.313 1135.12 133.945 1149.2C119.719 1163.42 100.896 1172.69 77.4754 1177L77.0444 1170.1C89.8325 1168.38 101.328 1162.2 111.529 1151.57C121.731 1140.93 128.125 1129.01 130.712 1115.79L129.849 1115.57C123.527 1124.91 114.188 1129.58 101.83 1129.58ZM106.572 1047.9C102.118 1047.9 98.2382 1049.19 94.9334 1051.78C91.6286 1054.22 89.1859 1057.52 87.6054 1061.69C86.0248 1065.86 84.8753 1069.95 84.1569 1073.98C83.5821 1078 83.2948 1082.09 83.2948 1086.26C83.2948 1092.01 83.9414 1097.47 85.2346 1102.64C86.5277 1107.67 89.0423 1112.27 92.7781 1116.44C96.514 1120.46 101.256 1122.47 107.003 1122.47C111.17 1122.47 114.762 1121.32 117.78 1119.02C120.941 1116.58 123.24 1113.42 124.677 1109.54C126.257 1105.66 127.407 1101.85 128.125 1098.12C128.844 1094.24 129.203 1090.36 129.203 1086.48C129.203 1082.6 128.844 1078.65 128.125 1074.62C127.407 1070.46 126.257 1066.29 124.677 1062.12C123.096 1057.96 120.725 1054.58 117.564 1051.99C114.547 1049.26 110.883 1047.9 106.572 1047.9Z" fill="#ABCFEF"/>
<path d="M1176.66 1850.19C1177.33 1848.91 1178.28 1848.01 1179.5 1847.49C1180.74 1846.93 1181.98 1846.97 1183.22 1847.62C1184.38 1848.23 1185.1 1849.02 1185.37 1850.01C1185.71 1850.98 1185.57 1852.04 1184.97 1853.2C1184.45 1854.19 1183.74 1854.89 1182.83 1855.32C1181.93 1855.74 1180.98 1855.69 1179.98 1855.17C1178.87 1854.59 1178.29 1853.89 1178.24 1853.07C1177.81 1854.69 1178.04 1856.21 1178.94 1857.62C1179.83 1859.04 1181.06 1860.16 1182.63 1860.98C1183.58 1861.48 1184.68 1861.84 1185.93 1862.07C1187.01 1862.22 1188.22 1862.08 1189.54 1861.67C1192.25 1860.61 1194.57 1858.25 1196.5 1854.57C1197.95 1851.79 1198.51 1849.2 1198.2 1846.77C1197.96 1844.32 1196.51 1842.41 1193.86 1841.02C1191.18 1839.62 1188.56 1839.88 1186.02 1841.82L1184.53 1841.04L1194.92 1821.19L1211.79 1830.02L1218.32 1825.38L1220.31 1826.42L1211.05 1837.92L1193.56 1828.77L1188.49 1838.45C1191.19 1837.33 1194.29 1837.69 1197.8 1839.53C1201.53 1841.48 1204 1844.19 1205.23 1847.68C1206.53 1851.15 1206.22 1854.7 1204.32 1858.34C1202.24 1862.31 1199.2 1864.85 1195.19 1865.97C1191.18 1867.09 1187.22 1866.62 1183.29 1864.56C1180.31 1863 1178.09 1860.9 1176.64 1858.24C1175.21 1855.65 1175.21 1852.96 1176.66 1850.19Z" fill="#ABCFEF"/>
<path d="M1179 1825.03C1177.49 1827.93 1174.84 1829.97 1171.06 1831.15C1167.33 1832.35 1163.66 1832.67 1160.06 1832.11L1170.29 1837.46L1177.97 1831.68L1179.96 1832.72L1170.35 1844.6L1146.65 1832.2L1147.69 1830.22C1150.66 1830.98 1153.86 1831.16 1157.29 1830.74C1160.77 1830.34 1163.71 1829.35 1166.11 1827.77C1168.12 1826.35 1169.7 1824.54 1170.85 1822.35C1173.31 1817.63 1172.33 1814.12 1167.91 1811.8C1166.01 1810.81 1164.17 1810.56 1162.38 1811.04C1160.64 1811.56 1159.27 1812.76 1158.28 1814.66C1157.89 1815.41 1157.68 1816.06 1157.65 1816.63C1158.34 1816.2 1159.01 1815.94 1159.63 1815.85C1160.32 1815.73 1161.08 1815.89 1161.91 1816.33C1162.94 1816.87 1163.59 1817.6 1163.84 1818.52C1164.14 1819.47 1164.02 1820.46 1163.47 1821.49C1162.87 1822.65 1162.04 1823.37 1160.99 1823.67C1159.98 1823.98 1158.92 1823.85 1157.81 1823.27C1156.03 1822.34 1155.03 1820.97 1154.81 1819.17C1154.64 1817.39 1155.04 1815.58 1156.01 1813.71C1157.67 1810.53 1160.05 1808.66 1163.12 1808.12C1166.24 1807.59 1169.42 1808.17 1172.64 1809.86C1174.38 1810.76 1175.87 1811.83 1177.12 1813.07C1180.58 1816.83 1181.21 1820.81 1179 1825.03Z" fill="#ABCFEF"/>
<path d="M1131.35 1835.81L1130.92 1834.08C1134.77 1833.57 1137.42 1831.93 1138.87 1829.16C1139.23 1828.45 1139.5 1827.8 1139.65 1827.2C1138.22 1828.03 1136.71 1828.03 1135.14 1827.21C1133.9 1826.56 1133.05 1825.62 1132.6 1824.38C1132.2 1823.12 1132.33 1821.87 1132.98 1820.63C1133.63 1819.39 1134.62 1818.54 1135.97 1818.08C1137.38 1817.61 1138.7 1817.69 1139.94 1818.34C1141.72 1819.27 1142.87 1820.75 1143.4 1822.76C1143.68 1824.64 1143.34 1826.49 1142.39 1828.31C1140.09 1832.7 1136.42 1835.2 1131.35 1835.81Z" fill="#ABCFEF"/>
<path d="M1127.47 1785.44C1132.15 1787.88 1135.04 1791.05 1136.16 1794.96C1137.28 1798.86 1136.64 1803.11 1134.24 1807.7C1131.99 1812 1128.76 1814.79 1124.56 1816.07C1120.41 1817.37 1116.22 1816.92 1112 1814.71C1107.25 1812.22 1104.05 1808.92 1102.42 1804.8C1100.84 1800.66 1101.26 1796.29 1103.66 1791.7C1106.08 1787.07 1109.49 1784.27 1113.89 1783.31C1118.32 1782.3 1122.84 1783.01 1127.47 1785.44ZM1115.5 1813.46C1118.56 1815.06 1121.65 1815.1 1124.77 1813.57C1127.88 1812.04 1130.28 1809.68 1131.94 1806.5C1133.69 1803.15 1134.34 1799.8 1133.88 1796.45C1133.48 1793.08 1131.69 1790.56 1128.51 1788.9C1125.2 1787.17 1122.02 1787.06 1118.96 1788.57C1115.95 1790.1 1113.56 1792.56 1111.78 1795.95C1110.01 1799.34 1109.38 1802.7 1109.91 1806.03C1110.45 1809.32 1112.32 1811.79 1115.5 1813.46Z" fill="#ABCFEF"/>
<path d="M1248.16 131.586C1243.86 132.345 1239.86 132.136 1236.17 130.958C1232.54 129.68 1229.48 127.608 1226.97 124.741C1224.55 121.859 1222.97 118.348 1222.24 114.209C1221.51 110.07 1221.79 106.232 1223.08 102.695C1224.46 99.1426 1226.63 96.1468 1229.6 93.7077C1232.65 91.2536 1236.33 89.6468 1240.64 88.8872C1245.03 88.1127 1249.04 88.3642 1252.66 89.6416C1256.26 90.8346 1259.28 92.8721 1261.7 95.7542C1264.13 98.6363 1265.71 102.189 1266.46 106.412C1267.19 110.551 1266.91 114.39 1265.61 117.927C1264.32 121.464 1262.19 124.453 1259.23 126.892C1256.24 129.246 1252.56 130.811 1248.16 131.586ZM1246.09 119.802C1248.79 119.326 1250.92 118.079 1252.48 116.062C1254.03 113.96 1254.55 111.474 1254.04 108.602C1253.68 106.575 1252.96 104.918 1251.86 103.63C1250.74 102.259 1249.36 101.327 1247.71 100.835C1246.14 100.328 1244.46 100.231 1242.69 100.544C1240.07 101.005 1237.95 102.295 1236.32 104.411C1234.76 106.428 1234.25 108.957 1234.78 111.998C1235.29 114.87 1236.63 117.029 1238.8 118.475C1241.04 119.822 1243.47 120.264 1246.09 119.802Z" fill="#ABCFEF"/>
<path d="M1186.66 132.24C1196.2 130.557 1203.98 131.93 1209.98 136.357C1215.99 140.785 1219.82 147.687 1221.47 157.063C1223.02 165.848 1221.46 173.526 1216.78 180.099C1212.19 186.657 1205.59 190.695 1196.97 192.215C1187.26 193.927 1178.9 192.701 1171.89 188.537C1164.96 184.273 1160.66 177.453 1159.01 168.077C1157.34 158.617 1159.17 150.717 1164.5 144.378C1169.81 137.954 1177.2 133.908 1186.66 132.24ZM1200.66 186.469C1206.91 185.367 1211.45 181.954 1214.27 176.231C1217.09 170.507 1217.93 164.394 1216.79 157.89C1215.58 151.048 1212.76 145.448 1208.34 141.09C1203.98 136.632 1198.55 134.977 1192.05 136.124C1185.29 137.315 1180.53 140.723 1177.78 146.347C1175.11 151.956 1174.39 158.224 1175.61 165.15C1176.83 172.077 1179.69 177.669 1184.18 181.928C1188.66 186.102 1194.16 187.616 1200.66 186.469Z" fill="#ABCFEF"/>
<path d="M1118.35 147.289C1126.12 145.919 1132.96 147.195 1138.88 151.116C1144.86 154.937 1148.53 160.649 1149.87 168.251C1151.36 176.698 1149.82 184.546 1145.27 191.794C1140.79 199.028 1134.38 203.382 1126.01 204.856C1116.81 206.48 1108.98 204.551 1102.52 199.07C1096.15 193.573 1092.15 186.18 1090.51 176.888C1088.11 163.289 1090.5 151.111 1097.66 140.355C1104.82 129.599 1114.93 121.763 1128 116.846L1128.97 120.856C1121.71 123.18 1115.73 128.023 1111.02 135.386C1106.29 142.665 1103.85 150.281 1103.68 158.236L1104.21 158.273C1106.45 152.217 1111.17 148.555 1118.35 147.289ZM1117.76 199.519C1120 200.866 1122.47 201.301 1125.17 200.824C1127.88 200.347 1130.06 199.135 1131.72 197.188C1133.36 195.156 1134.41 192.707 1134.86 189.84C1135.4 186.958 1135.62 184.263 1135.53 181.754C1135.5 179.145 1135.27 176.574 1134.82 174.04C1134.39 171.59 1133.74 169.136 1132.87 166.676C1132.08 164.202 1130.99 161.695 1129.58 159.156C1128.18 156.617 1126.35 154.674 1124.11 153.327C1121.94 151.881 1119.51 151.396 1116.8 151.873C1114.18 152.334 1112.01 153.589 1110.28 155.635C1108.62 157.583 1107.52 159.997 1106.99 162.879C1106.52 165.662 1106.3 168.399 1106.34 171.092C1106.37 173.701 1106.6 176.272 1107.05 178.806C1107.5 181.34 1108.11 183.844 1108.9 186.319C1109.75 188.694 1110.88 191.151 1112.29 193.69C1113.69 196.229 1115.52 198.172 1117.76 199.519Z" fill="#ABCFEF"/>
<path d="M1062.08 160.738C1064.37 154.935 1068.64 151.483 1074.89 150.38C1078.18 149.8 1081.09 150.026 1083.63 151.06C1086.16 152.094 1087.7 154.173 1088.26 157.299C1088.66 159.579 1088.29 161.691 1087.15 163.633C1086 165.491 1084.32 166.614 1082.13 167.001C1079.68 167.433 1077.66 167.093 1076.07 165.979C1074.33 164.98 1073.28 163.51 1072.94 161.567C1072.42 158.61 1072.97 156.335 1074.61 154.74C1074.43 154.686 1074 154.718 1073.32 154.837C1069.77 155.463 1067.24 158.13 1065.72 162.84C1070.59 166.249 1073.47 170.488 1074.36 175.556C1075.58 182.482 1073.96 188.343 1069.49 193.137C1065.02 197.931 1059.29 200.946 1052.27 202.182C1050.67 202.465 1048.95 202.594 1047.12 202.569C1044.96 202.688 1043.16 202.613 1041.72 202.344C1040.91 203.184 1040.45 204.048 1040.35 204.938C1040.15 205.758 1040.13 206.674 1040.31 207.688C1040.57 209.124 1041.33 210.252 1042.61 211.072C1044.3 212.255 1047.72 212.392 1052.87 211.483L1056.67 210.813C1059.8 210.262 1061.98 209.832 1063.24 209.524C1064.49 209.217 1066.25 208.862 1068.54 208.459C1080.95 206.27 1088.11 210.539 1090 221.266C1090.74 225.49 1090.43 229.378 1089.05 232.93C1087.67 236.482 1085.49 239.394 1082.49 241.664C1079.59 244.004 1076.4 245.916 1072.92 247.401C1069.44 248.886 1065.71 249.979 1061.74 250.679C1058.78 251.2 1055.88 251.538 1053.04 251.691C1050.29 251.914 1047.1 251.867 1043.47 251.548C1039.86 251.314 1036.81 250.328 1034.33 248.588C1031.86 246.933 1030.36 244.586 1029.82 241.545C1029.23 238.166 1030.3 235.103 1033.03 232.356C1035.79 229.693 1038.95 227.872 1042.52 226.894C1034.59 226.376 1030.09 223.077 1029.02 216.995C1028.02 211.336 1031.06 206.097 1038.14 201.278C1034.14 200.329 1030.71 198.408 1027.84 195.516C1025.07 192.609 1023.33 189.17 1022.63 185.2C1021.38 178.105 1022.91 172.217 1027.22 167.538C1031.54 162.858 1037.32 159.878 1044.59 158.597C1050.5 157.554 1056.33 158.268 1062.08 160.738ZM1082.63 227.66C1081.84 223.183 1078.11 221.533 1071.44 222.71L1069.03 223.134C1067.51 223.402 1066.38 223.646 1065.63 223.864L1062.09 224.49L1059.17 225.003L1053.85 225.942C1053.18 226.061 1052.15 226.197 1050.79 226.351C1049.44 226.59 1048.42 226.726 1047.72 226.761C1043.55 229.761 1041.9 233.753 1042.78 238.737C1044.11 246.254 1051.15 248.889 1063.9 246.64C1069.31 245.686 1073.98 243.556 1077.93 240.247C1081.96 236.924 1083.53 232.728 1082.63 227.66ZM1051.54 198.001C1053.99 197.569 1055.79 196.163 1056.93 193.783C1058.07 191.319 1058.64 188.867 1058.64 186.428C1058.65 183.988 1058.43 181.543 1058 179.094C1055.87 167.015 1051.64 161.534 1045.3 162.651C1043.36 162.994 1041.83 163.918 1040.7 165.423C1039.55 166.844 1038.87 168.62 1038.63 170.751C1038.4 172.883 1038.31 174.858 1038.37 176.676C1038.51 178.48 1038.76 180.353 1039.1 182.296C1039.4 183.985 1039.83 185.695 1040.4 187.424C1040.96 189.153 1041.71 190.937 1042.65 192.775C1043.66 194.599 1044.92 196.032 1046.41 197.076C1047.97 198.02 1049.68 198.328 1051.54 198.001Z" fill="#ABCFEF"/>
<path d="M981.894 214.985L975.08 176.341L963.044 178.463L962.329 174.409L974.492 172.264L982.82 151.33L986.874 150.615L990.203 169.494L1006.29 166.656L1007.01 170.711L990.918 173.548L997.419 210.418C997.985 213.628 999.058 216.008 1000.64 217.559C1002.06 219.223 1004.04 219.832 1006.58 219.385C1010.21 218.745 1012.89 216.139 1014.61 211.568L1017.76 213.887C1014.33 221.111 1008.81 225.393 1001.21 226.733C996.142 227.627 991.872 227.117 988.399 225.203C984.926 223.29 982.758 219.884 981.894 214.985Z" fill="#ABCFEF"/>
<path d="M754.85 1161.75C754.85 1156.58 756.35 1152.17 759.35 1148.5C762.35 1144.67 766.35 1142.75 771.35 1142.75C776.016 1142.75 779.6 1144.08 782.1 1146.75C784.766 1149.25 786.1 1152.83 786.1 1157.5C786.1 1161.5 785.016 1164.92 782.85 1167.75C780.683 1170.58 777.6 1172 773.6 1172C769.1 1172 766.1 1170.75 764.6 1168.25C765.933 1174.08 769.183 1178.5 774.35 1181.5C779.516 1184.5 785.266 1186 791.6 1186C795.433 1186 799.516 1185.33 803.85 1184C807.516 1182.67 811.1 1180.25 814.6 1176.75C821.433 1168.92 824.85 1157.58 824.85 1142.75C824.85 1131.58 822.35 1122.42 817.35 1115.25C812.516 1107.92 804.766 1104.25 794.1 1104.25C783.266 1104.25 775.433 1109.42 770.6 1119.75H764.6V1039.75H832.6L845.6 1014.25H853.6L843.35 1066H772.85V1105C779.516 1097 789.933 1093 804.1 1093C819.1 1093 831.433 1097.5 841.1 1106.5C850.933 1115.33 855.85 1127.08 855.85 1141.75C855.85 1157.75 850.433 1170.83 839.6 1181C828.766 1191.17 815.433 1196.25 799.6 1196.25C787.6 1196.25 777.1 1193.25 768.1 1187.25C759.266 1181.42 754.85 1172.92 754.85 1161.75Z" fill="#F9F4A0"/>
<path d="M745.078 976L678.578 1154.5H644.828L711.328 976H745.078Z" fill="#F9F4A0"/>
<path d="M585.25 1040.75C598.583 1040.75 610.083 1043.92 619.75 1050.25C629.583 1056.42 634.5 1065.75 634.5 1078.25C634.5 1090.08 630.167 1099.42 621.5 1106.25C612.833 1112.92 602.25 1117 589.75 1118.5V1119.5C622.25 1122 638.5 1133.92 638.5 1155.25C638.5 1168.58 632.917 1178.92 621.75 1186.25C610.75 1193.58 598.25 1197.25 584.25 1197.25C572.25 1197.25 561.833 1194.58 553 1189.25C544.333 1183.92 540 1175.75 540 1164.75C540 1159.25 541.417 1154.5 544.25 1150.5C547.083 1146.33 551.167 1144.25 556.5 1144.25C560.833 1144.25 564.333 1145.5 567 1148C569.833 1150.5 571.25 1153.92 571.25 1158.25C571.25 1162.25 570 1165.75 567.5 1168.75C565.167 1171.92 562 1173.5 558 1173.5C555 1173.5 552.167 1172.58 549.5 1170.75C550.667 1176.08 553.917 1180.17 559.25 1183C564.583 1186 570.25 1187.5 576.25 1187.5C586.417 1187.5 594.083 1184.42 599.25 1178.25C604.583 1172.08 607.25 1163.83 607.25 1153.5C607.25 1133.5 596.833 1123.5 576 1123.5H569.5V1115.5H576C585.167 1115.5 592 1112.42 596.5 1106.25C601.167 1100.08 603.5 1092.25 603.5 1082.75C603.5 1062.92 593.5 1053 573.5 1053C570.667 1053 567.417 1053.42 563.75 1054.25C558.417 1055.92 554.167 1058.75 551 1062.75C548 1066.75 546.5 1071.58 546.5 1077.25C549.667 1072.92 553.833 1070.75 559 1070.75C563.167 1070.75 566.5 1072 569 1074.5C571.5 1076.83 572.75 1080.08 572.75 1084.25C572.75 1088.92 571.25 1092.75 568.25 1095.75C565.25 1098.75 561.333 1100.25 556.5 1100.25C550.667 1100.25 546.083 1098.33 542.75 1094.5C539.583 1090.67 538 1085.83 538 1080C538 1067.17 542.583 1057.42 551.75 1050.75C560.917 1044.08 572.083 1040.75 585.25 1040.75Z" fill="#F9F4A0"/>
<path fill-rule="evenodd" clip-rule="evenodd" d="M1043.44 1342.79C1092.81 1304.9 1134.25 1257.64 1165.37 1203.74L1021.74 1120.81C1001.51 1155.85 974.574 1186.56 942.478 1211.2C910.382 1235.83 873.751 1253.9 834.676 1264.37C795.601 1274.85 754.848 1277.53 714.743 1272.25C674.637 1266.97 635.966 1253.85 600.935 1233.62C565.905 1213.4 535.203 1186.47 510.581 1154.38C485.959 1122.28 467.9 1085.65 457.435 1046.57C446.97 1007.5 444.304 966.737 449.589 926.625C454.873 886.513 468.006 847.833 488.236 812.793L344.601 729.866C313.478 783.773 293.274 843.281 285.144 904.992C277.013 966.703 281.115 1029.41 297.216 1089.53C313.316 1149.65 341.099 1206 378.979 1255.38C416.858 1304.76 464.093 1346.18 517.985 1377.3C571.878 1408.41 631.373 1428.61 693.073 1436.72C754.774 1444.84 817.471 1440.72 877.587 1424.61C937.702 1408.49 994.057 1380.69 1043.44 1342.79ZM1191.85 1219.02L317.241 714.068L395.223 578.999L1269.83 1083.95L1191.85 1219.02Z" fill="#ABCFEF"/>
<rect x="68" y="1492.79" width="1153" height="236" fill="#F9F4A0"/>
<path fill-rule="evenodd" clip-rule="evenodd" d="M208 1251.79V1964.29H1227.6L208 1251.79ZM347.959 1507.42V1826.05H803.525L347.959 1507.42Z" fill="#ABCFEF"/>
<circle cx="194.5" cy="189.5" r="97.5" fill="#F9F4A0"/>
<circle cx="1184" cy="1374" r="53" fill="#F9F4A0"/>
<path d="M1177 620L697 655L1177 940.5V620Z" fill="#F9F4A0"/>
<path d="M93.5 1782V1743C109.5 1725.5 129.5 1716.5 153.5 1716.5C172.5 1716.5 189 1719.5 219.5 1732.5C243.5 1743 257.5 1746 271.5 1746C291 1746 313 1733 329 1716.5V1755C313 1772.5 293 1782 269 1782C250 1782 233 1779 203 1766C179 1755.5 165 1752.5 150.5 1752.5C132 1752.5 109.5 1765.5 93.5 1782ZM93.5 1880.5V1841.5C109.5 1824 129.5 1815 153.5 1815C172.5 1815 189 1818 219.5 1831C243.5 1841.5 257.5 1844.5 271.5 1844.5C291 1844.5 313 1831.5 329 1815V1853.5C313 1871 293 1880.5 269 1880.5C250 1880.5 233 1877.5 203 1864.5C179 1854 165 1851 150.5 1851C132 1851 109.5 1864 93.5 1880.5Z" fill="#1D86EF"/>
<path d="M407.514 949C378.266 949 354.952 940.958 337.572 924.874C320.617 908.79 312.139 882.971 312.139 847.417V667.108H207.225V942.651H112.486V667.108H40V596H480V667.108H406.879V843.608C406.879 854.189 409.634 862.02 415.144 867.099C421.079 872.178 428.073 874.718 436.127 874.718C443.333 874.718 450.328 873.659 457.11 871.543C463.892 869.427 470.25 866.887 476.185 863.924V931.858C468.979 936.091 459.017 939.9 446.301 943.286C433.584 947.095 420.655 949 407.514 949Z" fill="#F9F4A0"/>
<path d="M854.106 1847C868.619 1847 879.59 1852.1 887.019 1862.29C894.621 1872.31 898.422 1886.48 898.422 1904.79C898.422 1923.11 894.88 1937.45 887.797 1947.81C880.713 1958 869.483 1963.1 854.106 1963.1C844.604 1963.1 836.57 1960.77 830.005 1956.1C823.613 1951.44 818.775 1944.79 815.492 1936.15C812.21 1927.34 810.568 1916.89 810.568 1904.79C810.568 1886.48 814.024 1872.31 820.935 1862.29C827.845 1852.1 838.903 1847 854.106 1847ZM854.366 1873.43C850.219 1873.43 847.196 1876.03 845.295 1881.21C843.395 1886.39 842.444 1894.34 842.444 1905.05C842.444 1915.59 843.395 1923.54 845.295 1928.89C847.196 1934.25 850.219 1936.93 854.366 1936.93C858.512 1936.93 861.536 1934.25 863.436 1928.89C865.509 1923.54 866.546 1915.59 866.546 1905.05C866.546 1894.34 865.509 1886.39 863.436 1881.21C861.536 1876.03 858.512 1873.43 854.366 1873.43ZM985.498 1849.59L882.873 2034.63H852.552L955.177 1849.59H985.498ZM983.684 1920.86C993.359 1920.86 1001.48 1923.19 1008.04 1927.86C1014.61 1932.35 1019.53 1938.91 1022.82 1947.55C1026.27 1956.02 1028 1966.38 1028 1978.65C1028 1996.96 1024.46 2011.3 1017.37 2021.67C1010.29 2031.86 999.061 2036.96 983.684 2036.96C974.182 2036.96 966.148 2034.63 959.583 2029.96C953.19 2025.3 948.353 2018.65 945.07 2010.01C941.787 2001.2 940.146 1990.74 940.146 1978.65C940.146 1960.34 943.601 1946.17 950.512 1936.15C957.423 1925.96 968.48 1920.86 983.684 1920.86ZM983.943 1947.29C979.797 1947.29 976.773 1949.88 974.873 1955.07C972.972 1960.25 972.022 1968.2 972.022 1978.91C972.022 1989.45 972.972 1997.4 974.873 2002.75C976.773 2008.11 979.797 2010.79 983.943 2010.79C988.09 2010.79 991.113 2008.19 993.014 2003.01C995.087 1997.66 996.124 1989.62 996.124 1978.91C996.124 1968.2 995.087 1960.25 993.014 1955.07C991.113 1949.88 988.09 1947.29 983.943 1947.29Z" fill="#F9F4A0"/>
<path d="M735.751 1914.12C755.274 1914.12 770.219 1919.56 780.585 1930.45C790.952 1941.33 796.135 1956.36 796.135 1975.54C796.135 1993.51 790.347 2008.19 778.771 2019.6C767.368 2031 752.856 2036.7 735.233 2036.7C715.365 2036.7 699.211 2031.35 686.771 2020.63C674.504 2009.75 668.371 1994.72 668.371 1975.54C668.371 1956.19 674.764 1941.16 687.549 1930.45C700.334 1919.56 716.401 1914.12 735.751 1914.12ZM744.563 2026.59C757.348 2026.59 767.541 2021.41 775.143 2011.05C782.745 2000.68 786.546 1988.84 786.546 1975.54C786.546 1961.55 782.918 1949.45 775.661 1939.26C768.578 1928.89 758.384 1923.71 745.081 1923.71C731.259 1923.71 720.634 1928.81 713.205 1939C705.949 1949.19 702.32 1961.37 702.32 1975.54C702.32 1989.71 706.035 2001.8 713.464 2011.82C720.893 2021.67 731.259 2026.59 744.563 2026.59Z" fill="#F9F4A0"/>
<path d="M592.001 1914.12C611.524 1914.12 626.469 1919.56 636.835 1930.45C647.202 1941.33 652.385 1956.36 652.385 1975.54C652.385 1993.51 646.597 2008.19 635.021 2019.6C623.618 2031 609.106 2036.7 591.483 2036.7C571.615 2036.7 555.461 2031.35 543.021 2020.63C530.754 2009.75 524.621 1994.72 524.621 1975.54C524.621 1956.19 531.014 1941.16 543.799 1930.45C556.584 1919.56 572.651 1914.12 592.001 1914.12ZM600.813 2026.59C613.598 2026.59 623.791 2021.41 631.393 2011.05C638.995 2000.68 642.796 1988.84 642.796 1975.54C642.796 1961.55 639.168 1949.45 631.911 1939.26C624.828 1928.89 614.634 1923.71 601.331 1923.71C587.509 1923.71 576.884 1928.81 569.455 1939C562.199 1949.19 558.57 1961.37 558.57 1975.54C558.57 1989.71 562.285 2001.8 569.714 2011.82C577.143 2021.67 587.509 2026.59 600.813 2026.59Z" fill="#F9F4A0"/>
<path d="M436 1927.6V1919.3H507.268V1927.6H487.831V2026.33H507.268V2034.63H436V2026.33H455.437V1927.6H436Z" fill="#F9F4A0"/>
</svg>
